 http://img3.imageshack.us/img3/58/trollhunter2010.jpg

Country.......: Norway
Genre.........: Thriller, Adventure, Comedy, Fantasy
Date release..: 29.10.2010 [World]
Director......: Andre Ovredal
Writers.......: Andre Ovredal, Havard S. Johansen
Duration......: 103 min.
More..........: http://www.imdb.com/title/tt1740707
Trailer.......: http://www.imdb.com/video/imdb/vi2670304537
Trailer.......:

Pilot :
A group of students investigate a series of mysterious bear killings, but learns that there are much more dangerous things going on. They start to follow a mysterious hunter, learning that he is actually a troll hunter. 

Cats :
Otto Jespersen   	 ...  	Hans, trolljegeren
Glenn Erland Tosterud 	... 	Thomas
Johanna Morck 	... 	Johanna
Tomas Alf Larsen 	... 	Kalle
Urmila Berg-Domaas 	... 	Malica
Hans Morten Hansen 	... 	Finn Haugen
Robert Stoltenberg 	... 	Polsk bjornejeger
Knut Naerum 	... 	E-verkssjef
Eirik Bech 	... 	Campingplasseier
Inge Erik Hnejesand 		
Tom Jorgensen 	Tom Jorgensen 		
Benedicte Aubert Ringnes 		
Magne Skjavesland 		
Torunn Lodemel Stokkeland 	... 	Hilde, veterinar
Finn Norvald Ovredal

Data Technical :
!!! SAMPLE !!!
Audio.....: Norwegian
Subtitles.: None
Format                           : AVI
Format/Info                      : Audio Video Interleave
File size                        : 699 MiB
Duration                         : 1h 43mn
Overall bit rate                 : 945 Kbps
Writing application              : Nandub v1.0rc2
Writing library                  : Nandub build 1853/release
Video
ID                               : 0
Format                           : MPEG-4 Visual
Format profile                   : Advanced Simple@L5
Format settings, BVOP            : Yes
Format settings, QPel            : No
Format settings, GMC             : No warppoints
Format settings, Matrix          : Default (H.263)
Muxing mode                      : Packed bitstream
Codec ID                         : XVID
Codec ID/Hint                    : XviD
Duration                         : 1h 43mn
Bit rate                         : 800 Kbps
Width                            : 592 pixels
Height                           : 336 pixels
Display aspect ratio             : 16:9
Frame rate                       : 23.976 fps
Color space                      : YUV
Chroma subsampling               : 4:2:0
Bit depth                        : 8 bits
Scan type                        : Progressive
Bits/(Pixel*Frame)               : 0.168
Stream size                      : 592 MiB (85%)
Writing library                  : XviD 64
Audio
ID                               : 1
Format                           : MPEG Audio
Format version                   : Version 1
Format profile                   : Layer 3
Mode                             : Joint stereo
Mode extension                   : MS Stereo
Codec ID                         : 55
Codec ID/Hint                    : MP3
Duration                         : 1h 43mn
Bit rate mode                    : Constant
Bit rate                         : 32.0 Kbps
Channel(s)                       : 2 channels
Sampling rate                    : 48.0 KHz
Video delay                      : 8ms
Stream size                      : 97.8 MiB (14%)
Alignment                        : Aligned on interleaves
Interleave, duration             : 24 ms (0.58 video frame)
Interleave, preload duration     : 140 ms
Writing library                  : LAME3.96

Screen : 
http://img717.imageshack.us/img717/3540/trollhunter2010s1.jpg 
http://img192.imageshack.us/img192/5379/trollhunter2010s2.jpg 
http://img850.imageshack.us/img850/6396/trollhunter2010s3.jpg 
http://img220.imageshack.us/img220/4748/trollhunter2010s4.jpg 
http://img850.imageshack.us/img850/8746/trollhunter2010s5.jpg